<?xml version="1.0" encoding="UTF-8" standalone="no"?>
<!DOCTYPE svg PUBLIC "-//W3C//DTD SVG 1.1//EN"
 "http://www.w3.org/Graphics/SVG/1.1/DTD/svg11.dtd">
<!-- Generated by graphviz version 8.0.5 (20230430.1635)
 -->
<!-- Pages: 1 -->
<svg width="459pt" height="476pt"
 viewBox="0.00 0.00 458.84 476.00" xmlns="http://www.w3.org/2000/svg" xmlns:xlink="http://www.w3.org/1999/xlink">
<g id="graph0" class="graph" transform="scale(1 1) rotate(0) translate(4 472)">
<polygon fill="white" stroke="none" points="-4,4 -4,-472 454.84,-472 454.84,4 -4,4"/>
<!-- firefox.exe -->
<g id="node1" class="node">
<title>firefox.exe</title>
<ellipse fill="none" stroke="black" cx="219.6" cy="-450" rx="51.35" ry="18"/>
<text text-anchor="middle" x="219.6" y="-444.95" font-family="Times,serif" font-size="14.00">firefox.exe</text>
</g>
<!-- IP Address -->
<g id="node2" class="node">
<title>IP Address</title>
<ellipse fill="none" stroke="black" cx="219.6" cy="-378" rx="83.6" ry="18"/>
<text text-anchor="middle" x="219.6" y="-372.95" font-family="Times,serif" font-size="14.00">Receive IP Address</text>
</g>
<!-- firefox.exe&#45;&gt;IP Address -->
<g id="edge1" class="edge">
<title>firefox.exe&#45;&gt;IP Address</title>
<path fill="none" stroke="black" d="M219.6,-431.7C219.6,-424.24 219.6,-415.32 219.6,-406.97"/>
<polygon fill="black" stroke="black" points="223.1,-407.1 219.6,-397.1 216.1,-407.1 223.1,-407.1"/>
</g>
<!-- dropper -->
<g id="node3" class="node">
<title>dropper</title>
<ellipse fill="none" stroke="black" cx="219.6" cy="-306" rx="115.84" ry="18"/>
<text text-anchor="middle" x="219.6" y="-300.95" font-family="Times,serif" font-size="14.00">Fork Downloader (Dropper)</text>
</g>
<!-- IP Address&#45;&gt;dropper -->
<g id="edge2" class="edge">
<title>IP Address&#45;&gt;dropper</title>
<path fill="none" stroke="black" d="M219.6,-359.7C219.6,-352.24 219.6,-343.32 219.6,-334.97"/>
<polygon fill="black" stroke="black" points="223.1,-335.1 219.6,-325.1 216.1,-335.1 223.1,-335.1"/>
</g>
<!-- 443 -->
<g id="node4" class="node">
<title>443</title>
<ellipse fill="none" stroke="black" cx="105.6" cy="-234" rx="105.6" ry="18"/>
<text text-anchor="middle" x="105.6" y="-228.95" font-family="Times,serif" font-size="14.00">Send Request to Port 443</text>
</g>
<!-- dropper&#45;&gt;443 -->
<g id="edge3" class="edge">
<title>dropper&#45;&gt;443</title>
<path fill="none" stroke="black" d="M192.01,-288.05C177.02,-278.85 158.31,-267.36 142.13,-257.43"/>
<polygon fill="black" stroke="black" points="144.3,-254.04 133.95,-251.79 140.64,-260 144.3,-254.04"/>
</g>
<!-- cmd -->
<g id="node5" class="node">
<title>cmd</title>
<ellipse fill="none" stroke="black" cx="334.6" cy="-234" rx="105.09" ry="18"/>
<text text-anchor="middle" x="334.6" y="-228.95" font-family="Times,serif" font-size="14.00">Execute cmd Commands</text>
</g>
<!-- dropper&#45;&gt;cmd -->
<g id="edge4" class="edge">
<title>dropper&#45;&gt;cmd</title>
<path fill="none" stroke="black" d="M247.44,-288.05C262.56,-278.85 281.44,-267.36 297.76,-257.43"/>
<polygon fill="black" stroke="black" points="299.3,-259.98 306.02,-251.79 295.66,-254 299.3,-259.98"/>
</g>
<!-- thumbs.db -->
<g id="node6" class="node">
<title>thumbs.db</title>
<ellipse fill="none" stroke="black" cx="334.6" cy="-90" rx="103.56" ry="18"/>
<text text-anchor="middle" x="334.6" y="-84.95" font-family="Times,serif" font-size="14.00">Write Data to thumbs.db</text>
</g>
<!-- cmd&#45;&gt;thumbs.db -->
<g id="edge5" class="edge">
<title>cmd&#45;&gt;thumbs.db</title>
<path fill="none" stroke="black" d="M322.3,-215.78C315.95,-205.84 308.88,-192.8 305.6,-180 301.64,-164.5 301.64,-159.5 305.6,-144 307.93,-134.9 312.18,-125.68 316.72,-117.53"/>
<polygon fill="black" stroke="black" points="320.16,-119.59 322.3,-109.22 314.16,-116 320.16,-119.59"/>
</g>
<!-- git.exe -->
<g id="node7" class="node">
<title>git.exe</title>
<ellipse fill="none" stroke="black" cx="382.6" cy="-162" rx="68.24" ry="18"/>
<text text-anchor="middle" x="382.6" y="-156.95" font-family="Times,serif" font-size="14.00">Execute git.exe</text>
</g>
<!-- cmd&#45;&gt;git.exe -->
<g id="edge6" class="edge">
<title>cmd&#45;&gt;git.exe</title>
<path fill="none" stroke="black" d="M346.47,-215.7C351.99,-207.64 358.68,-197.89 364.79,-188.98"/>
<polygon fill="black" stroke="black" points="368.11,-191.33 370.87,-181.1 362.33,-187.37 368.11,-191.33"/>
</g>
<!-- burnout.bat -->
<g id="node8" class="node">
<title>burnout.bat</title>
<ellipse fill="none" stroke="black" cx="334.6" cy="-18" rx="85.64" ry="18"/>
<text text-anchor="middle" x="334.6" y="-12.95" font-family="Times,serif" font-size="14.00">Execute burnout.bat</text>
</g>
<!-- thumbs.db&#45;&gt;burnout.bat -->
<g id="edge8" class="edge">
<title>thumbs.db&#45;&gt;burnout.bat</title>
<path fill="none" stroke="black" d="M334.6,-71.7C334.6,-64.24 334.6,-55.32 334.6,-46.97"/>
<polygon fill="black" stroke="black" points="338.1,-47.1 334.6,-37.1 331.1,-47.1 338.1,-47.1"/>
</g>
<!-- git.exe&#45;&gt;thumbs.db -->
<g id="edge7" class="edge">
<title>git.exe&#45;&gt;thumbs.db</title>
<path fill="none" stroke="black" d="M370.98,-144.05C365.46,-136.01 358.74,-126.2 352.59,-117.23"/>
<polygon fill="black" stroke="black" points="354.99,-115.54 346.45,-109.28 349.22,-119.5 354.99,-115.54"/>
</g>
</g>
</svg>
